# xmcd
#
# Track frame offsets: 
#        150
#        23019
#        42565
#        58639
#        71683
#        88906
#        103651
#        124274
#        141821
#        158110
#        176786
#        201100
#        215843
#        230876
#        250836
#        267389
#        283122
#        304352
#
# Disc length: 4406 seconds
#
# Revision: 0
# Processed by: cddbd v1.5.2PL0 Copyright (c) Steve Scherf et al.
# Submitted via: ExactAudioCopy v0.95b3
#
DISCID=20113412
DTITLE=sweetL - a hiphop mix... on a whim
DYEAR=2007
DGENRE=hip hop
TTITLE0=bahamadia - i confess (roots remix)
TTITLE1=the pharcyde - passin me by (fly as pie remix)
TTITLE2=busta rhymes ft zhane - its a party
TTITLE3=pharaohe monch - the light
TTITLE4=dj jazzy jeff - musik lounge
TTITLE5=janet jackson ft qtip - got til its gone
TTITLE6=krs one - mcs act like they dont know
TTITLE7=qtip - (i know) you can do it
TTITLE8=skillz - hip hop died?
TTITLE9=notorious big - skys the limit
TTITLE10=a tribe called quest - stressed out
TTITLE11=bahamadia - uknowhowedu (true)
TTITLE12=gift of gab - to know you
TTITLE13=mc lyte - the wonder years
TTITLE14=a tribe called quest - the chase ii
TTITLE15=camp lo - sparkle
TTITLE16=the pharcyde - runnin
TTITLE17=the roots - what they do
EXTD=
EXTT0=
EXTT1=
EXTT2=
EXTT3=
EXTT4=
EXTT5=
EXTT6=
EXTT7=
EXTT8=
EXTT9=
EXTT10=
EXTT11=
EXTT12=
EXTT13=
EXTT14=
EXTT15=
EXTT16=
EXTT17=
PLAYORDER=
